# This file uses centimeters as units for non-parametric coordinates.

mtllib Fries.mtl
g default
v -4.446171 0.495715 0.500000
v -4.490768 0.483005 0.500000
v -4.532262 0.462304 0.500000
v -4.569239 0.434321 0.500000
v -4.600434 0.400010 0.500000
v -4.399998 0.500000 0.500000
v -4.399998 0.500000 -0.500000
v -4.600434 0.400010 -0.500000
v -4.569239 0.434321 -0.500000
v -4.532262 0.462304 -0.500000
v -4.490768 0.483005 -0.500000
v -4.446171 0.495715 -0.500000
v -5.220414 -0.432527 0.500000
v -5.219932 -0.457225 0.500000
v -5.208905 -0.479330 0.500000
v -5.189463 -0.494570 0.500000
v -5.165364 -0.500000 0.500000
v -5.210257 -0.410008 0.500000
v -5.165364 -0.500000 -0.500000
v -5.189463 -0.494570 -0.500000
v -5.208905 -0.479330 -0.500000
v -5.219932 -0.457225 -0.500000
v -5.220414 -0.432527 -0.500000
v -5.210257 -0.410008 -0.500000
v 5.223717 0.425892 0.500000
v 5.221695 0.453416 0.500000
v 5.208435 0.477620 0.500000
v 5.186328 0.494141 0.500000
v 5.159359 0.500000 0.500000
v 5.214136 0.400010 0.500000
v 5.159359 0.500000 -0.500000
v 5.186328 0.494141 -0.500000
v 5.208435 0.477620 -0.500000
v 5.221695 0.453416 -0.500000
v 5.223717 0.425892 -0.500000
v 5.214136 0.400010 -0.500000
v 4.571255 -0.496096 0.500000
v 4.608515 -0.484541 0.500000
v 4.642729 -0.465798 0.500000
v 4.672525 -0.440618 0.500000
v 4.696710 -0.410008 0.500000
v 4.532439 -0.500000 0.500000
v 4.532439 -0.500000 -0.500000
v 4.696710 -0.410008 -0.500000
v 4.672525 -0.440618 -0.500000
v 4.642729 -0.465798 -0.500000
v 4.608515 -0.484541 -0.500000
v 4.571255 -0.496096 -0.500000
vt 0.875000 0.246808
vt 0.625236 0.248093
vt 0.625000 0.250000
vt 0.618710 0.250209
vt 0.610288 0.250209
vt 0.875000 0.250000
vt 0.875000 0.247810
vt 0.600003 0.500000
vt 0.397498 0.500000
vt 0.390188 0.250000
vt 0.382177 0.250000
vt 0.375000 0.250000
vt 0.375000 0.247948
vt 0.125000 0.247948
vt 0.125000 0.250000
vt 0.875000 0.003026
vt 0.625000 0.246808
vt 0.625000 0.003026
vt 0.600603 0.993992
vt 0.601242 0.987607
vt 0.630631 0.002958
vt 0.601804 0.981984
vt 0.626562 0.003007
vt 0.875000 0.002187
vt 0.875000 0.000000
vt 0.600003 1.000000
vt 0.125000 0.247160
vt 0.397498 1.000000
vt 0.125000 0.002692
vt 0.397498 0.000000
vt 0.600003 0.000000
vt 0.000000 0.000000
vt 0.000000 0.000000
vt 0.600003 0.250000
vt 0.397498 0.250000
vt 0.375000 0.247160
vt 0.375000 0.002692
vt 0.375000 0.747308
vt 0.375000 0.502840
vt 0.000000 0.000000
vt 0.375000 0.500000
vt 0.382177 0.500000
vt 0.390188 0.500000
vt 0.610288 0.499791
vt 0.618710 0.499791
vt 0.625000 0.500000
vt 0.625000 0.502190
vt 0.625000 0.503192
vt 0.625000 0.746974
vt 0.000000 0.000000
vt 0.625000 0.750000
vt 0.617199 0.750000
vt 0.608339 0.750000
vt 0.600003 0.750000
vt 0.397498 0.750000
vt 0.373682 0.002678
vt 0.370714 0.002646
vt 0.395927 0.982546
vt -0.000000 -0.000000
vt 0.396325 0.986970
vt -0.000000 -0.000000
vt 0.396856 0.992862
vt 0.388297 0.750000
vt 0.380702 0.750000
vt 0.125000 0.000000
vt 0.375000 0.750000
vt 0.125000 0.001864
vt -0.000000 -0.000000
vn -0.802040 0.597270 0.000000
vn -0.802040 0.597270 0.000000
vn -0.796467 0.604682 0.000000
vn -0.796467 0.604682 0.000000
vn 0.840629 -0.541612 0.000000
vn 0.840629 -0.541612 0.000000
vn 0.845914 -0.533320 0.000000
vn 0.845914 -0.533320 0.000000
vn 0.000611 1.000000 0.000000
vn 0.000611 1.000000 0.000000
vn -0.000446 1.000000 0.000000
vn -0.000446 1.000000 0.000000
vn 0.000401 -1.000000 0.000000
vn 0.000401 -1.000000 0.000000
vn -0.000559 -1.000000 0.000000
vn -0.000559 -1.000000 0.000000
vn -0.674565 0.738216 0.000000
vn -0.674565 0.738216 0.000000
vn -0.527185 0.849750 0.000000
vn -0.527185 0.849750 0.000000
vn -0.361793 0.932258 0.000000
vn -0.361793 0.932258 0.000000
vn -0.184039 0.982919 0.000000
vn -0.184039 0.982919 0.000000
vn -0.428852 -0.903375 0.000000
vn -0.428852 -0.903375 0.000000
vn -0.774829 -0.632170 0.000000
vn -0.774829 -0.632170 0.000000
vn -0.971070 -0.238795 0.000000
vn -0.971070 -0.238795 0.000000
vn -0.979647 0.200729 0.000000
vn -0.979647 0.200729 0.000000
vn 0.414917 0.909859 0.000000
vn 0.414917 0.909859 0.000000
vn 0.755028 0.655692 0.000000
vn 0.755028 0.655692 0.000000
vn 0.959026 0.283318 0.000000
vn 0.959026 0.283318 0.000000
vn 0.990132 -0.140137 0.000000
vn 0.990132 -0.140137 0.000000
vn 0.718663 -0.695358 0.000000
vn 0.718663 -0.695358 0.000000
vn 0.565803 -0.824540 0.000000
vn 0.565803 -0.824540 0.000000
vn 0.390283 -0.920695 0.000000
vn 0.390283 -0.920695 0.000000
vn 0.199129 -0.979973 0.000000
vn 0.199129 -0.979973 0.000000
vn 0.000000 -0.000000 1.000000
vn 0.000000 -0.000000 1.000000
vn 0.000000 -0.000000 1.000000
vn 0.000000 -0.000000 1.000000
vn 0.000000 -0.000000 1.000000
vn 0.000000 -0.000000 1.000000
vn 0.000000 -0.000000 1.000000
vn 0.000000 -0.000000 1.000000
vn 0.000000 -0.000000 1.000000
vn 0.000000 -0.000000 1.000000
vn 0.000000 -0.000000 1.000000
vn 0.000000 -0.000000 1.000000
vn 0.000000 -0.000000 1.000000
vn 0.000000 -0.000000 1.000000
vn 0.000000 -0.000000 1.000000
vn 0.000000 -0.000000 1.000000
vn 0.000000 -0.000000 1.000000
vn 0.000000 -0.000000 1.000000
vn 0.000000 -0.000000 1.000000
vn 0.000000 -0.000000 1.000000
vn 0.000000 -0.000000 1.000000
vn 0.000000 -0.000000 1.000000
vn 0.000000 -0.000000 1.000000
vn 0.000000 -0.000000 1.000000
vn 0.000000 0.000000 -1.000000
vn 0.000000 0.000000 -1.000000
vn 0.000000 0.000000 -1.000000
vn 0.000000 0.000000 -1.000000
vn 0.000000 0.000000 -1.000000
vn 0.000000 0.000000 -1.000000
vn 0.000000 0.000000 -1.000000
vn 0.000000 0.000000 -1.000000
vn 0.000000 0.000000 -1.000000
vn 0.000000 0.000000 -1.000000
vn 0.000000 0.000000 -1.000000
vn 0.000000 0.000000 -1.000000
vn 0.000000 0.000000 -1.000000
vn 0.000000 0.000000 -1.000000
vn 0.000000 0.000000 -1.000000
vn 0.000000 0.000000 -1.000000
vn 0.000000 0.000000 -1.000000
vn 0.000000 0.000000 -1.000000
vn 0.000000 0.000000 -1.000000
vn 0.000000 0.000000 -1.000000
vn 0.000000 0.000000 -1.000000
vn 0.000000 0.000000 -1.000000
vn 0.000000 0.000000 -1.000000
vn 0.000000 0.000000 -1.000000
s 1
g pCube1
usemtl initialShadingGroup
f 24/9/1 18/35/2 5/34/3 8/8/4
f 41/28/5 44/55/6 36/54/7 30/26/8
f 29/18/9 31/16/10 7/1/11 6/17/12
f 43/29/13 42/37/14 17/36/15 19/27/16
f 5/34/3 4/5/17 9/44/18 8/8/4
f 4/5/17 3/4/19 10/45/20 9/44/18
f 3/4/19 2/3/21 11/46/22 10/45/20
f 2/3/21 1/2/23 12/7/24 11/6/22
f 1/2/23 6/17/12 7/1/11 12/7/24
f 17/36/15 16/13/25 20/14/26 19/27/16
f 16/13/25 15/12/27 21/15/28 20/14/26
f 15/12/27 14/11/29 22/42/30 21/41/28
f 14/11/29 13/10/31 23/43/32 22/42/30
f 13/10/31 18/35/2 24/9/1 23/43/32
f 29/18/9 28/23/33 32/24/34 31/16/10
f 28/23/33 27/21/35 33/25/36 32/24/34
f 27/22/35 26/20/37 34/52/38 33/51/36
f 26/20/37 25/19/39 35/53/40 34/52/38
f 25/19/39 30/26/8 36/54/7 35/53/40
f 41/28/5 40/62/41 45/63/42 44/55/6
f 40/62/41 39/60/43 46/64/44 45/63/42
f 39/60/43 38/58/45 47/66/46 46/64/44
f 38/57/45 37/56/47 48/67/48 47/65/46
f 37/56/47 42/37/14 43/29/13 48/67/48
s off
f 37/56/49 38/57/50 39/59/51 40/61/52 41/30/53 30/31/54 25/32/55 26/33/56 27/21/57 28/23/58 29/18/59 6/17/60 1/2/61 2/3/62 3/4/63 4/5/64 5/34/65 18/35/66 13/10/67 14/11/68 15/12/69 16/13/70 17/36/71 42/37/72
f 43/38/73 19/39/74 20/40/75 21/41/76 22/42/77 23/43/78 24/9/79 8/8/80 9/44/81 10/45/82 11/46/83 12/47/84 7/48/85 31/49/86 32/50/87 33/51/88 34/52/89 35/53/90 36/54/91 44/55/92 45/63/93 46/64/94 47/66/95 48/68/96
